<svg xmlns="http://www.w3.org/2000/svg" width="150" height="150" viewBox="0 0 150 150">
  <g id="Group_5" data-name="Group 5" transform="translate(-5416 839)">
    <rect id="Rectangle_8" data-name="Rectangle 8" width="150" height="150" transform="translate(5416 -839)" fill="#d8d8d8"/>
    <g id="a4a72105d37447734c2b1f36c1049d07" transform="translate(5431.966 -933.281)">
      <path id="Path_6" data-name="Path 6" d="M97.171,132.5H20.9A10.929,10.929,0,0,0,10,143.4v51.766a10.929,10.929,0,0,0,10.9,10.9H97.171a10.929,10.929,0,0,0,10.9-10.9V143.4A10.929,10.929,0,0,0,97.171,132.5Zm6.815,61.523c0,5.494-2.452,7.946-7.946,7.946h-74c-5.494,0-7.946-2.452-7.946-7.946V144.528c0-5.494,2.452-7.946,7.946-7.946h74c5.494,0,7.946,2.452,7.946,7.946ZM40.651,161.1l10.207,8.176L77.417,146.8l20.434,18.393v30.651H20.217V177.451ZM28.393,142.717a8.176,8.176,0,1,0,8.176,8.176A8.178,8.178,0,0,0,28.393,142.717Z" transform="translate(0 0)" fill="#fff"/>
    </g>
  </g>
</svg>
