<svg xmlns="http://www.w3.org/2000/svg" width="137.769" height="265.312" viewBox="0 0 137.769 265.312">
  <g id="a978c4d08cfc3fabd8befaeea5d34b4c" transform="translate(-245.522 -9.988)">
    <path id="Path_2" data-name="Path 2" d="M246.464,38.933a3.643,3.643,0,0,0,3.52,1.408,3.274,3.274,0,0,0,1.76-.921l16.271-15.486c-6.254,65.925,28.644,110.381,31.135,113.494a76.759,76.759,0,0,0,10.207,11.885c.162,79.381,67.875,125.163,68.633,125.651a3.594,3.594,0,0,0,4.413-1.245,3.532,3.532,0,0,0-.135-4.846s-61.918-41.883-65.3-113.63a36.877,36.877,0,0,0,16.867,5.9c17.138,1.435,29.321-10.613,29.836-11.127,0,0,24.2-23.148,10.1-52.659-7.012-14.674-26.478-14.728-27.264-14.728l-.92.108c-26.641,2.572-33.572,38.96-33.87,40.421a149.737,149.737,0,0,0-2,15.73c-1.543-1.787-3.059-3.763-4.548-5.875L305,132.8c-.379-.46-35.846-44.726-29.511-108.919l15.351,19.331a3.643,3.643,0,0,0,3.52,1.408,3.468,3.468,0,0,0,1.76-.921,3.959,3.959,0,0,0,1.218-2.762,4.394,4.394,0,0,0-.948-2.951L275.3,11.453a3.687,3.687,0,0,0-3.52-1.408.1.1,0,0,0-.081.027,3.5,3.5,0,0,0-1.679.893L246.68,33.22A4.418,4.418,0,0,0,246.464,38.933ZM346.719,90.455c2.518.162,14.755,1.354,20.062,10.721,5.415,9.557,5.6,28.184-8.691,43.887-2.545,2.247-11.669,9.5-23.609,8.664-6.065-.433-11.94-3.114-17.6-7.77.162-6.877,1.435-13.835,2.762-21.226C319.7,124.46,325.385,93.677,346.719,90.455Z" transform="translate(0)"/>
  </g>
</svg>
